<svg width="28" height="23" viewBox="0 0 28 23" fill="none" xmlns="http://www.w3.org/2000/svg">
<path fill-rule="evenodd" clip-rule="evenodd" d="M10.9695 15.1788L10.9692 15.1785L10.9696 15.1782L10.9696 15.1779L10.9698 15.178L22.9089 4.62623C23.4329 4.17077 22.7945 3.94867 22.0988 4.36179L7.36358 13.4662L0.998751 11.5206C-0.375772 11.1085 -0.385642 10.1834 1.30735 9.51841L26.1096 0.152153C27.2424 -0.351516 28.3358 0.418613 27.9033 2.11661L23.6795 21.61C23.3845 22.9953 22.5299 23.3266 21.3458 22.6867L14.9116 18.0311L11.8189 20.9764C11.8091 20.9856 11.7994 20.9949 11.7898 21.0041C11.4438 21.3339 11.1577 21.6068 10.5314 21.6068L10.9695 15.1788Z" fill="white"/>
</svg>
